<?xml version="1.0" encoding="utf-8"?>
<!-- Generator: Adobe Illustrator 24.0.3, SVG Export Plug-In . SVG Version: 6.00 Build 0)  -->
<svg version="1.1" id="Layer_1" xmlns="http://www.w3.org/2000/svg" xmlns:xlink="http://www.w3.org/1999/xlink" x="0px" y="0px"
	 viewBox="0 0 1366 300" style="enable-background:new 0 0 1366 300;" xml:space="preserve">
<style type="text/css">
	.st0{fill:#8BCF5C;}
	.st1{fill:#FF9472;}
	.st2{fill:#F9F100;}
</style>
<path class="st0" d="M1294.5,300c1.5-15.8,3.3-41.6,2.5-73.5c-1.5-57.9-10.2-82.2-11-132c-0.3-21.5,0.7-54.1,8.5-94.5
	c10.7,0,21.3,0,32,0c-2.6,11.8-6.5,32-8.5,57.5c-4.8,61.6,6.3,93.9,9,170c0.6,16,1,41.2-0.5,72.5C1315.8,300,1305.2,300,1294.5,300z
	"/>
<path class="st0" d="M1301,241.5c-2.6,2-12.5,9.5-27,9c-12.7-0.5-21.2-6.8-24-9c-3.2-2.7-6.7-6.3-10-11c-9-12.8-10.7-26-11-33
	c2.2-1.6,11.7-8.3,25-7c15.1,1.5,23.6,12.2,25,14C1286.3,216.8,1293.7,229.2,1301,241.5z"/>
<path class="st0" d="M1312.8,156.2c1.9,2,9.4,9.5,20.3,9c9.5-0.5,16-6.8,18.1-9c2.4-2.7,5.1-6.3,7.5-11c6.8-12.8,8-26,8.3-33
	c-1.7-1.6-8.8-8.3-18.8-7c-11.4,1.5-17.8,12.2-18.8,14C1323.8,131.6,1318.3,143.9,1312.8,156.2z"/>
<path class="st1" d="M1294,119c-5.3,5.4-16.7,5.4-24,0c-9.4-6.9-8.9-20.6-5-29c2.3-5.1,8.4-13.6,15-13
	C1291.9,78.1,1304.2,108.6,1294,119z"/>
<path class="st1" d="M1253.7,113.3c-7.5,0.3-15.9-7.5-17.6-16.4c-2.2-11.5,7.5-21.1,16.1-24.6c5.2-2.1,15.4-4.3,19.8,0.7
	C1280,82,1268.2,112.7,1253.7,113.3z"/>
<path class="st1" d="M1230.6,85.6c-6-4.5-7.5-15.9-3.2-23.8c5.6-10.2,19.2-11.5,28.1-8.8c5.4,1.7,14.6,6.5,14.9,13.1
	C1270.9,78.1,1242.3,94.4,1230.6,85.6z"/>
<path class="st1" d="M1235.8,35.9c0.5-7.5,9.1-15,18.2-15.7c11.6-0.9,20.2,9.7,22.8,18.7c1.6,5.4,2.6,15.8-2.8,19.6
	C1264.2,65.5,1234.9,50.5,1235.8,35.9z"/>
<path class="st1" d="M1267.1,14.9c5.3-5.3,16.8-5.3,24,0.2c9.3,7,8.7,20.6,4.8,29c-2.4,5.1-8.5,13.6-15.1,12.9
	C1268.9,55.8,1256.8,25.2,1267.1,14.9z"/>
<path class="st1" d="M1309.8,23.8c7.5,0.1,15.5,8.2,16.7,17.2c1.6,11.6-8.5,20.7-17.3,23.8c-5.3,1.9-15.6,3.5-19.8-1.7
	C1281.9,53.9,1295.2,23.7,1309.8,23.8z"/>
<path class="st1" d="M1332.5,57.2c5.1,5.5,4.7,16.9-1,24c-7.3,9.1-20.9,8-29.2,3.8c-5-2.6-13.3-8.9-12.4-15.5
	C1291.6,57.6,1322.6,46.5,1332.5,57.2z"/>
<path class="st1" d="M1328.2,94.7c0.7,7.5-6.6,16.3-15.4,18.4c-11.3,2.8-21.5-6.4-25.5-14.8c-2.4-5.1-5.1-15.2-0.4-19.8
	C1295.5,70.1,1326.8,80.2,1328.2,94.7z"/>
<circle class="st2" cx="1280.5" cy="67.5" r="15.5"/>
</svg>
